<?xml version="1.0" encoding="UTF-8" standalone="no"?>
<svg
   width="1024px"
   height="1024px"
   viewBox="0 0 1024 1024"
   version="1.1"
   id="svg13"
   sodipodi:docname="talkmore.svg"
   inkscape:version="1.2.2 (b0a8486541, 2022-12-01)"
   xmlns:inkscape="http://www.inkscape.org/namespaces/inkscape"
   xmlns:sodipodi="http://sodipodi.sourceforge.net/DTD/sodipodi-0.dtd"
   xmlns="http://www.w3.org/2000/svg"
   xmlns:svg="http://www.w3.org/2000/svg">
  <defs
     id="defs14" />
  <sodipodi:namedview
     id="namedview12"
     pagecolor="#ffffff"
     bordercolor="#000000"
     borderopacity="0.25"
     inkscape:showpageshadow="2"
     inkscape:pageopacity="0.0"
     inkscape:pagecheckerboard="0"
     inkscape:deskcolor="#d1d1d1"
     showgrid="false"
     inkscape:zoom="0.3894907"
     inkscape:cx="993.60524"
     inkscape:cy="500.6538"
     inkscape:window-width="960"
     inkscape:window-height="1008"
     inkscape:window-x="0"
     inkscape:window-y="0"
     inkscape:window-maximized="0"
     inkscape:current-layer="g30" />
  <g
     id="surface1">
    <g
       id="g30">
      <rect
         x="0"
         y="0"
         width="1024"
         height="1024"
         style="fill:#000000;fill-opacity:1;stroke:none"
         id="rect2"
         ry="337.245" />
      <g
         id="g21"
         transform="matrix(1.0808822,0,0,1.0808822,-41.411637,-41.411731)"
         style="stroke:#ffffff;stroke-opacity:1;stroke-width:13.87755298;stroke-dasharray:none">
        <path
           style="fill:#ffffff;fill-opacity:1;fill-rule:nonzero;stroke:#ffffff;stroke-opacity:1;stroke-width:13.87755298;stroke-dasharray:none"
           d="m 215.61719,741.47266 c 20.54687,1.82421 100.60156,-3.35157 123.59375,-8.32032 11.33203,-2.44531 17.5664,-15.0625 18.41406,-25.08593 1.37891,-16.30079 2.82422,-44.32032 -1.03906,-69.92579 -0.77735,-5.16015 -0.9961,-8.39062 4.89843,-9.23437 22.40235,-3.19531 52.27735,-6.79688 67.60157,-11.22266 9.61328,-2.77343 14.21093,-8.67187 9.12109,-20.23437 -54.77734,-124.38281 -76.57812,-246.3125 -12.24219,-376.34766 7.5586,-15.27344 30.8711,-16.76172 39.36719,-0.17969 65.22266,127.26563 59.87109,263.46875 46.89453,404.21094 -9.94922,107.9336 45.55469,104.52735 109.60156,92.13672 8.35157,-1.61719 14.20704,2.92969 14.53125,12.40234 3.71485,107.63282 3.58985,107.65625 82.16797,117.90625 39.82032,5.19532 75.64063,9.59375 119.77735,7.42969 13.24218,-0.65234 20.0039,-10.30859 19.66406,-19.875 -0.39453,-11.15234 -5.95703,-17.18359 -19.25391,-18.70312 -47.28515,-5.40235 -113.83203,-5.83203 -135.85156,-16.5 -16.89844,-8.1875 -19.35156,-13 -16.84766,-61.59766 1.20704,-23.39062 15.59375,-32.48828 51.08985,-32.83203 l 88.51953,-0.86328 c 11.03906,-0.10547 19.49609,-10.48828 20.19531,-20.25781 0.64844,-9.04297 -2.51562,-18.34375 -19.51562,-20.67969 -72.17578,-9.91406 -141.94532,-0.96485 -221.64453,4.125 -35.99219,2.30078 -49.27735,-15.58985 -44.70313,-45.35156 26.11719,-169.96094 -30.36719,-391.94922 -62.91797,-429.60157 -15.79687,-18.27343 -24.25,-23.78125 -53.63281,-24.42968 -28.78125,-0.63672 -53.4375,22.96093 -62.02344,41.10156 -78.0625,164.92578 -26.90234,277.78515 -18.21875,339.10547 1.10547,7.82812 -1.7539,16.125 -10.625,19.84765 -5.30859,2.22657 -116.22265,27.98438 -159.78906,45.90235 -19.59375,8.0625 -30.49609,17.18359 -25.54297,33.54297 4.76172,15.71093 21.76563,16.89453 36.73438,12.99218 13.89453,-3.62109 91.58203,-25.60547 104.3789,-21.75781 8.53516,2.56641 13.20313,10.12891 13.69922,26.84375 0.68359,23.09766 -1.35937,29.25 -16.89453,30.64063 -16.125,1.4414 -48.25,5.73437 -81.74609,7.38671 -15.60547,0.76954 -27.58594,5.97266 -26.625,21.71875 0.6875,11.25 8.13281,14.75782 18.86328,15.70704 z m 0,0"
           id="path4" />
        <g
           id="g14"
           style="stroke:#ffffff;stroke-opacity:1;stroke-width:13.87755298;stroke-dasharray:none">
          <path
             style="fill:#ffffff;fill-opacity:1;fill-rule:nonzero;stroke:#ffffff;stroke-opacity:1;stroke-width:13.87755298;stroke-dasharray:none"
             d="m 271.98047,430.88281 c 0,-15.20312 -12.39844,-27.52734 -27.69141,-27.52734 -15.29297,0 -27.6914,12.32422 -27.6914,27.52734 0,15.20313 12.39843,27.52735 27.6914,27.52735 15.29297,0 27.69141,-12.32422 27.69141,-27.52735 z m 0,0"
             id="path6" />
          <path
             style="fill:#ffffff;fill-opacity:1;fill-rule:nonzero;stroke:#ffffff;stroke-opacity:1;stroke-width:13.87755298;stroke-dasharray:none"
             d="m 478.92187,371.77344 c 0,-15.20313 -12.39843,-27.52735 -27.6914,-27.52735 -15.29297,0 -27.69141,12.32422 -27.69141,27.52735 0,15.20312 12.39844,27.52734 27.69141,27.52734 15.29297,0 27.6914,-12.32422 27.6914,-27.52734 z m 0,0"
             id="path8" />
          <path
             style="fill:#ffffff;fill-opacity:1;fill-rule:nonzero;stroke:#ffffff;stroke-opacity:1;stroke-width:13.87755298;stroke-dasharray:none"
             d="m 687.28516,355.92578 c 0,-15.20312 -12.39844,-27.52734 -27.69141,-27.52734 -15.29297,0 -27.69141,12.32422 -27.69141,27.52734 0,15.20313 12.39844,27.52734 27.69141,27.52734 15.29297,0 27.69141,-12.32421 27.69141,-27.52734 z m 0,0"
             id="path10" />
        </g>
      </g>
    </g>
  </g>
</svg>
